<svg viewBox="0 0 1067 1067" xmlns="http://www.w3.org/2000/svg" style="fill-rule:evenodd;clip-rule:evenodd;stroke-linejoin:round;stroke-miterlimit:2"><path style="fill:#295cbf" d="M0 0h1066.67v1066.67H0z"/><clipPath id="a"><path d="M0 0h1066.67v1066.67H0z"/></clipPath><g clip-path="url(#a)"><path style="fill:none" d="M0 0h1066.67v1066.67H0z"/><path d="M494.47 829.48v39.92l-77.28 27.7s31.88 19.31 10.3 56.67c39.61-24.15 66.34 17.06 66.34 17.06l34.96-85.6.28-64.31-34.6 8.56zM384.6 821.53v38.57l-59.16 15.22s13.5 14.64-1.72 29.29c20.96-7.18 28.43 14.36 28.43 14.36l57.42-47.64v-47.97l-24.96-1.83z" style="fill:#f46322;fill-rule:nonzero"/><path d="M802.32 728.09l-77.84 73.76 10.7 11.02c8.4 9.37 16.38 15.5 23.99 18.4 7.55 2.89 17.47 4.36 29.73 4.36h117.13L802.33 728.1zM436.83 740.05a109.86 109.86 0 01-36.77-22.73c-10.47-9.84-18.8-21.87-24.93-36.07-6.14-14.18-9.17-30.18-9.17-47.9 0-24.22 5.87-46.87 17.64-68.02 11.77-21.11 30.55-40.09 56.38-56.87l183.43 189.25a222.78 222.78 0 01-20 14.76l-64.07-66.09a11.57 11.57 0 10-16.62 16.1l60.07 61.96a226.59 226.59 0 01-21.54 9.62l-53.95-55.65a11.57 11.57 0 00-16.61 16.11l45.82 47.27a217.7 217.7 0 01-26.36 4.64l-34.88-35.98a11.57 11.57 0 00-16.62 16.1L479.43 748a125.3 125.3 0 01-42.6-7.94m385.31-279.81c-5.58-10.76-22.33 9.6-30.26 44.06 11.08-51.84 1.16-53.55-6.56-46.66-12.64 11.22-28.96 74.69-94.16 154.88l-185.83-193.1c-10.68-10.96-19.61-21.2-26.88-30.72a178.63 178.63 0 01-17.67-27.85 113.43 113.43 0 01-9.7-27.1c-1.9-9-2.86-18.38-2.86-28.04 0-6.93.7-13.67 2.08-20.17 8.93.06 18.61-.08 29.2-.43 62.77-2.04 104.31-32.24 101.71-67.2-4-53.88-42.12-117.06-115.44-106C376.6 125.33 349 220.25 340.67 269.06l-.06.25a184.95 184.95 0 00-3.73 37.34c0 22.92 3.91 45.91 11.63 68.97 7.76 23.08 20.3 46.69 37.75 70.87a306.82 306.82 0 00-57.1 34.63 233.09 233.09 0 00-45.01 45.24 208.94 208.94 0 00-29.54 54.44c-7.08 19.53-10.64 40.24-10.64 62.2 0 30.98 6.22 58.8 18.63 83.48 12.4 24.7 28.78 45.73 49.12 63.18 20.3 17.41 43.47 30.72 69.48 39.89 1.13.4 2.26.8 3.41 1.15a232.29 232.29 0 0075.7 12.67c11.6 0 23-.49 34.17-1.47a351.35 351.35 0 0034.51-4.72 328.26 328.26 0 0054.7-15.1c38.1-14.2 72.44-33.87 103.13-59.04 0 0 42.09-31.33 72.58-79.37 56.7-87.3 74.25-201.31 62.74-223.44" style="fill:#fed62d;fill-rule:nonzero"/><path d="M524.46 236.02c-2.67 1.02-12.63 2.47 1 15.03 22.37 20.62 42.3 29 83.17 40.43 39.84 11.15-60.62-64.43-84.17-55.46" style="fill:#c43a05;fill-rule:nonzero"/><path d="M628.13 247.46c17.98 16.35 81.72 21.8 41.4 46.85-40.31 25.06-165.61-52.3-143.82-58.83 21.79-6.54 11.98-35.41 14.16-46.85 2.18-11.45 17.98 20.7 35.96 26.7 0 0 6.54 1.63 3.27-13.08 16.34 22.33 49.03 45.21 49.03 45.21" style="fill:#f46322;fill-rule:nonzero"/><path d="M493.3 186.3a14.76 14.76 0 11-29.51.01 14.76 14.76 0 0129.51 0" style="fill-rule:nonzero"/></g></svg>